<?xml version="1.0" standalone="no"?>
<!DOCTYPE svg PUBLIC "-//W3C//DTD SVG 20010904//EN"
 "http://www.w3.org/TR/2001/REC-SVG-20010904/DTD/svg10.dtd">
<svg version="1.0" xmlns="http://www.w3.org/2000/svg"
 width="512.000000pt" height="512.000000pt" viewBox="0 0 512.000000 512.000000"
 preserveAspectRatio="xMidYMid meet">
<metadata>
Created by potrace 1.14, written by Peter Selinger 2001-2017
</metadata>
<g transform="translate(0.000000,512.000000) scale(0.100000,-0.100000)"
fill="#000000" stroke="none">
<path d="M2378 5116 c-1 -2 -39 -6 -82 -10 -44 -4 -82 -9 -86 -11 -3 -2 -30
-6 -60 -10 -30 -3 -73 -11 -95 -16 -22 -6 -47 -12 -55 -14 -35 -7 -110 -28
-185 -52 -635 -203 -1157 -654 -1453 -1255 -61 -124 -162 -392 -176 -468 -2
-14 -11 -54 -20 -90 -15 -68 -18 -82 -38 -220 -14 -94 -17 -461 -5 -555 19
-157 32 -226 64 -350 28 -112 81 -275 94 -290 5 -5 9 -15 9 -22 0 -16 105
-235 149 -311 270 -466 727 -859 1221 -1050 181 -70 396 -127 550 -146 25 -4
59 -8 75 -11 29 -5 158 -13 238 -14 l37 -1 0 -95 c0 -89 1 -95 24 -111 23 -14
28 -14 68 5 24 11 63 32 87 45 88 50 178 44 281 -20 42 -26 72 -36 118 -40 70
-7 96 1 186 55 54 33 66 36 136 36 72 0 79 -2 147 -43 62 -38 82 -44 138 -48
72 -4 91 2 179 55 54 33 66 36 136 36 71 0 80 -3 145 -42 79 -47 100 -52 133
-35 l22 13 0 488 0 487 37 45 c21 24 40 46 43 49 22 20 120 154 179 245 155
239 296 585 346 855 3 14 7 39 11 55 35 189 40 606 8 768 -2 12 -7 42 -10 67
-12 91 -88 366 -129 465 -89 218 -243 490 -344 611 -14 17 -44 53 -66 80 -41
51 -239 252 -289 292 -376 310 -774 488 -1242 558 -93 14 -514 29 -526 20z"/>
</g>
</svg>
