<svg id="Capa_1" enable-background="new 0 0 512 512" height="512" viewBox="0 0 512 512" width="512" xmlns="http://www.w3.org/2000/svg"><g><g><path d="m184.16 369.728h-13.379c-4.143 0-7.5 3.358-7.5 7.5s3.357 7.5 7.5 7.5h13.379c4.143 0 7.5-3.358 7.5-7.5s-3.358-7.5-7.5-7.5z"/><path d="m327.812 384.728h13.379c4.143 0 7.5-3.358 7.5-7.5s-3.357-7.5-7.5-7.5h-13.379c-4.143 0-7.5 3.358-7.5 7.5s3.357 7.5 7.5 7.5z"/><path d="m476.435 137.138c2.156-1.739 4.239-3.591 6.225-5.577 14.564-14.551 22.586-33.902 22.586-54.49 0-20.586-8.021-39.944-22.583-54.508-14.549-14.55-33.898-22.563-54.482-22.563s-39.933 8.013-54.482 22.563c-14.562 14.564-22.583 33.922-22.583 54.508 0 20.588 8.021 39.939 22.583 54.487 1.99 1.99 4.076 3.845 6.236 5.586.283.255.581.493.9.703 11.521 9.012 25.242 14.512 39.847 15.913v61.557c0 8.118-6.604 14.723-14.723 14.723h-142.473v-28.773c14.603-1.401 28.323-6.901 39.842-15.91.323-.213.625-.453.911-.711 2.156-1.739 4.24-3.591 6.226-5.577 14.565-14.55 22.587-33.901 22.587-54.489 0-20.586-8.021-39.944-22.584-54.508-14.55-14.55-33.898-22.563-54.482-22.563-20.583 0-39.932 8.013-54.481 22.563-14.562 14.564-22.583 33.922-22.583 54.508 0 20.588 8.021 39.939 22.583 54.486 1.987 1.987 4.072 3.841 6.229 5.581.285.258.587.498.91.711 11.52 9.01 25.24 14.51 39.844 15.911v28.773h-142.476c-8.118 0-14.723-6.605-14.723-14.723v-55.844c14.166-1.373 28.009-6.665 39.788-15.836.35-.226.677-.482.984-.762 2.144-1.726 4.221-3.574 6.211-5.564 30.033-30.034 30.034-78.928 0-108.995-30.033-30.035-78.926-30.034-108.996.002-30.031 30.064-30.03 78.958.006 108.995 1.982 1.979 4.05 3.82 6.184 5.538.321.295.665.563 1.033.799 11.786 9.164 25.628 14.45 39.791 15.822v55.843c0 16.389 13.334 29.723 29.723 29.723h142.474v28.425h-49.277c-9.027 0-16.372 7.345-16.372 16.373v26.656h-30.369c-13.685 0-24.818 11.134-24.818 24.819v145.867c0 13.686 11.134 24.819 24.818 24.819h86.226c4.143 0 7.5-3.358 7.5-7.5s-3.357-7.5-7.5-7.5h-86.226c-5.414 0-9.818-4.405-9.818-9.819v-70.878c7.552 6.511 17.371 10.462 28.102 10.462h38.106v1.259c0 8.965 7.294 16.259 16.259 16.259h61.735c8.965 0 16.259-7.294 16.259-16.259v-1.259h38.107c10.73 0 20.549-3.951 28.101-10.462v70.878c0 5.415-4.404 9.819-9.818 9.819h-86.197c-4.143 0-7.5 3.358-7.5 7.5s3.357 7.5 7.5 7.5h86.197c13.685 0 24.818-11.134 24.818-24.819v-145.867c0-13.686-11.134-24.819-24.818-24.819h-30.369v-26.656c0-9.028-7.345-16.373-16.372-16.373h-49.274v-28.425h142.473c16.389 0 29.723-13.334 29.723-29.723v-61.557c14.603-1.401 28.323-6.9 39.843-15.91.321-.213.623-.453.909-.712zm-392.646-40.465c-11.463 0-20.788-9.326-20.788-20.789s9.325-20.789 20.788-20.789 20.788 9.326 20.788 20.789-9.325 20.789-20.788 20.789zm-18.25 9.98c5.348 3.184 11.587 5.02 18.25 5.02 6.662 0 12.902-1.836 18.25-5.019 9.682 5.8 16.107 15.847 17.266 27.039-21.251 14.85-49.795 14.847-71.058-.004 1.162-11.186 7.597-21.232 17.292-27.036zm-25.656-67.726c12.11-12.097 28.008-18.144 43.905-18.144 15.893 0 31.783 6.047 43.874 18.138 22.623 22.646 24.085 58.552 4.396 82.895-3.328-10.287-9.891-19.338-18.759-25.713 3.957-5.757 6.279-12.721 6.279-20.219 0-19.734-16.055-35.789-35.788-35.789s-35.789 16.055-35.789 35.789c0 7.497 2.322 14.46 6.278 20.217-8.879 6.378-15.451 15.432-18.783 25.719-19.692-24.343-18.231-60.251 4.387-82.893zm216.103 99.499c-11.463 0-20.789-9.326-20.789-20.789s9.326-20.789 20.789-20.789 20.788 9.326 20.788 20.789-9.325 20.789-20.788 20.789zm-18.25 9.981c5.347 3.184 11.587 5.019 18.25 5.019 6.662 0 12.902-1.835 18.249-5.019 9.686 5.802 16.112 15.854 17.267 27.051-10.339 7.249-22.622 11.17-35.517 11.17-12.893 0-25.176-3.92-35.516-11.17 1.155-11.197 7.58-21.25 17.267-27.051zm-43.816-23.828c0-16.58 6.46-32.171 18.19-43.901 11.716-11.717 27.298-18.17 43.874-18.17 16.577 0 32.159 6.453 43.875 18.17 11.731 11.73 18.191 27.322 18.191 43.901 0 14.372-4.862 27.991-13.796 38.996-3.327-10.289-9.891-19.343-18.76-25.719 3.957-5.757 6.279-12.721 6.279-20.219 0-19.734-16.055-35.789-35.788-35.789-19.734 0-35.789 16.055-35.789 35.789 0 7.498 2.322 14.462 6.279 20.219-8.869 6.376-15.433 15.429-18.76 25.718-8.933-11.004-13.795-24.623-13.795-38.995zm94.192 303.444c0 .671-.588 1.259-1.259 1.259h-61.735c-.671 0-1.259-.588-1.259-1.259v-17.546c0-.655.588-1.23 1.259-1.23h61.735c.671 0 1.259.575 1.259 1.23zm24.648-139.558c.73 0 1.372.642 1.372 1.373v26.656h-40.828c-4.143 0-7.5 3.358-7.5 7.5s3.357 7.5 7.5 7.5h86.197c5.414 0 9.818 4.405 9.818 9.819v42.349c0 15.496-12.605 28.102-28.101 28.102h-38.107v-1.287c0-8.95-7.294-16.23-16.259-16.23h-61.735c-8.965 0-16.259 7.281-16.259 16.23v1.287h-38.106c-15.495 0-28.102-12.606-28.102-28.102v-42.349c0-5.415 4.404-9.819 9.818-9.819h86.226c4.143 0 7.5-3.358 7.5-7.5s-3.357-7.5-7.5-7.5h-40.856v-26.656c0-.731.642-1.373 1.372-1.373zm53.356-211.394c0-16.58 6.46-32.171 18.19-43.901 11.716-11.717 27.298-18.17 43.875-18.17s32.159 6.453 43.875 18.169c11.73 11.73 18.19 27.322 18.19 43.901 0 14.372-4.861 27.991-13.795 38.997-3.327-10.289-9.892-19.343-18.761-25.719 3.957-5.757 6.279-12.721 6.279-20.219 0-19.734-16.055-35.789-35.788-35.789s-35.788 16.055-35.788 35.789c0 7.498 2.322 14.462 6.279 20.219-8.87 6.376-15.434 15.43-18.76 25.72-8.935-11.005-13.796-24.625-13.796-38.997zm62.065 62.05c-12.894 0-25.176-3.92-35.516-11.17 1.155-11.197 7.581-21.25 17.267-27.052 5.347 3.184 11.587 5.019 18.249 5.019s12.902-1.836 18.249-5.019c9.687 5.802 16.113 15.854 17.268 27.052-10.339 7.249-22.622 11.17-35.517 11.17zm0-48.202c-11.463 0-20.788-9.326-20.788-20.789s9.325-20.789 20.788-20.789 20.788 9.326 20.788 20.789-9.325 20.789-20.788 20.789z"/></g></g></svg>